<?xml version="1.0" encoding="us-ascii" standalone="no"?><svg xmlns="http://www.w3.org/2000/svg" xmlns:xlink="http://www.w3.org/1999/xlink" contentStyleType="text/css" height="484px" preserveAspectRatio="none" style="width:684px;height:484px;background:#FFFFFF;" version="1.1" viewBox="0 0 684 484" width="684px" zoomAndPan="magnify"><defs><linearGradient id="gn98nyzc3q1880" x1="50%" x2="50%" y1="0%" y2="100%"><stop offset="0%" stop-color="#525252"/><stop offset="100%" stop-color="#262626"/></linearGradient><linearGradient id="gn98nyzc3q1881" x1="50%" x2="50%" y1="0%" y2="100%"><stop offset="0%" stop-color="#F4F4F4"/><stop offset="100%" stop-color="#F4F4F4"/></linearGradient></defs><g><ellipse cx="249.5625" cy="20" fill="url(#gn98nyzc3q1880)" rx="10" ry="10" style="stroke:#222222;stroke-width:1.0;"/><rect fill="url(#gn98nyzc3q1881)" height="54.1328" style="stroke:#C6C6C6;stroke-width:0.5;" width="116" x="191.5625" y="50"/><text fill="#262626" font-family="sans-serif" font-size="12" lengthAdjust="spacing" textLength="41" x="211.5625" y="81.6016">receive</text><text fill="#262626" font-family="sans-serif" font-size="12" lengthAdjust="spacing" textLength="4" x="252.5625" y="81.6016">&#160;</text><text fill="#262626" font-family="sans-serif" font-size="12" lengthAdjust="spacing" textLength="31" x="256.5625" y="81.6016">event</text><polygon fill="url(#gn98nyzc3q1881)" points="176.0625,124.1328,323.0625,124.1328,335.0625,141.1992,323.0625,158.2656,176.0625,158.2656,164.0625,141.1992,176.0625,124.1328" style="stroke:#F4F4F4;stroke-width:0.5;"/><text fill="#262626" font-family="sans-serif" font-size="12" lengthAdjust="spacing" textLength="31" x="186.0625" y="145.7344">event</text><text fill="#262626" font-family="sans-serif" font-size="12" lengthAdjust="spacing" textLength="4" x="217.0625" y="145.7344">&#160;</text><text fill="#262626" font-family="sans-serif" font-size="12" lengthAdjust="spacing" textLength="51" x="221.0625" y="145.7344">identifier</text><text fill="#262626" font-family="sans-serif" font-size="12" lengthAdjust="spacing" textLength="4" x="272.0625" y="145.7344">&#160;</text><text fill="#262626" font-family="sans-serif" font-size="12" lengthAdjust="spacing" textLength="37" x="276.0625" y="145.7344">known</text><text fill="#262626" font-family="sans-serif" font-size="12" lengthAdjust="spacing" textLength="19" x="135.0625" y="128.668">yes</text><text fill="#262626" font-family="sans-serif" font-size="12" lengthAdjust="spacing" textLength="14" x="345.0625" y="128.668">no</text><rect fill="#90EE90" height="68.2656" style="stroke:#C6C6C6;stroke-width:0.5;" width="185" x="11" y="168.2656"/><text fill="#262626" font-family="sans-serif" font-size="12" lengthAdjust="spacing" textLength="40" x="31" y="199.8672">ignore,</text><text fill="#262626" font-family="sans-serif" font-size="12" lengthAdjust="spacing" textLength="4" x="71" y="199.8672">&#160;</text><text fill="#262626" font-family="sans-serif" font-size="12" lengthAdjust="spacing" textLength="22" x="75" y="199.8672">and</text><text fill="#262626" font-family="sans-serif" font-size="12" lengthAdjust="spacing" textLength="4" x="97" y="199.8672">&#160;</text><text fill="#262626" font-family="sans-serif" font-size="12" lengthAdjust="spacing" textLength="75" x="101" y="199.8672">acknowledge</text><text fill="#262626" font-family="sans-serif" font-size="12" lengthAdjust="spacing" textLength="11" x="31" y="214">to</text><text fill="#262626" font-family="sans-serif" font-size="12" lengthAdjust="spacing" textLength="4" x="42" y="214">&#160;</text><text fill="#262626" font-family="sans-serif" font-size="12" lengthAdjust="spacing" textLength="31" x="46" y="214">avoid</text><text fill="#262626" font-family="sans-serif" font-size="12" lengthAdjust="spacing" textLength="4" x="77" y="214">&#160;</text><text fill="#262626" font-family="sans-serif" font-size="12" lengthAdjust="spacing" textLength="37" x="81" y="214">retries</text><polygon fill="url(#gn98nyzc3q1881)" points="335.625,168.2656,455.625,168.2656,467.625,185.332,455.625,202.3984,335.625,202.3984,323.625,185.332,335.625,168.2656" style="stroke:#F4F4F4;stroke-width:0.5;"/><text fill="#262626" font-family="sans-serif" font-size="12" lengthAdjust="spacing" textLength="53" x="345.625" y="189.8672">signature</text><text fill="#262626" font-family="sans-serif" font-size="12" lengthAdjust="spacing" textLength="4" x="398.625" y="189.8672">&#160;</text><text fill="#262626" font-family="sans-serif" font-size="12" lengthAdjust="spacing" textLength="43" x="402.625" y="189.8672">verified</text><text fill="#262626" font-family="sans-serif" font-size="12" lengthAdjust="spacing" textLength="14" x="299.625" y="172.8008">no</text><text fill="#262626" font-family="sans-serif" font-size="12" lengthAdjust="spacing" textLength="19" x="477.625" y="172.8008">yes</text><rect fill="#FFC0CB" height="54.1328" style="stroke:#C6C6C6;stroke-width:0.5;" width="108" x="226" y="212.3984"/><text fill="#262626" font-family="sans-serif" font-size="12" lengthAdjust="spacing" textLength="35" x="246" y="244">return</text><text fill="#262626" font-family="sans-serif" font-size="12" lengthAdjust="spacing" textLength="4" x="281" y="244">&#160;</text><text fill="#262626" font-family="sans-serif" font-size="12" lengthAdjust="spacing" textLength="29" x="285" y="244">error</text><polygon fill="url(#gn98nyzc3q1881)" points="453.75,212.3984,568.75,212.3984,580.75,229.4648,568.75,246.5313,453.75,246.5313,441.75,229.4648,453.75,212.3984" style="stroke:#F4F4F4;stroke-width:0.5;"/><text fill="#262626" font-family="sans-serif" font-size="12" lengthAdjust="spacing" textLength="31" x="463.75" y="234">event</text><text fill="#262626" font-family="sans-serif" font-size="12" lengthAdjust="spacing" textLength="4" x="494.75" y="234">&#160;</text><text fill="#262626" font-family="sans-serif" font-size="12" lengthAdjust="spacing" textLength="60" x="498.75" y="234">supported</text><text fill="#262626" font-family="sans-serif" font-size="12" lengthAdjust="spacing" textLength="14" x="417.75" y="216.9336">no</text><text fill="#262626" font-family="sans-serif" font-size="12" lengthAdjust="spacing" textLength="19" x="590.75" y="216.9336">yes</text><rect fill="#90EE90" height="68.2656" style="stroke:#C6C6C6;stroke-width:0.5;" width="130" x="364" y="256.5313"/><text fill="#262626" font-family="sans-serif" font-size="12" lengthAdjust="spacing" textLength="75" x="384" y="288.1328">acknowledge</text><text fill="#262626" font-family="sans-serif" font-size="12" lengthAdjust="spacing" textLength="4" x="459" y="288.1328">&#160;</text><text fill="#262626" font-family="sans-serif" font-size="12" lengthAdjust="spacing" textLength="11" x="463" y="288.1328">to</text><text fill="#262626" font-family="sans-serif" font-size="12" lengthAdjust="spacing" textLength="31" x="384" y="302.2656">avoid</text><text fill="#262626" font-family="sans-serif" font-size="12" lengthAdjust="spacing" textLength="4" x="415" y="302.2656">&#160;</text><text fill="#262626" font-family="sans-serif" font-size="12" lengthAdjust="spacing" textLength="37" x="419" y="302.2656">retries</text><rect fill="url(#gn98nyzc3q1881)" height="68.2656" style="stroke:#C6C6C6;stroke-width:0.5;" width="120" x="533.5" y="256.5313"/><text fill="#262626" font-family="sans-serif" font-size="12" lengthAdjust="spacing" textLength="32" x="553.5" y="288.1328">apply</text><text fill="#262626" font-family="sans-serif" font-size="12" lengthAdjust="spacing" textLength="4" x="585.5" y="288.1328">&#160;</text><text fill="#262626" font-family="sans-serif" font-size="12" lengthAdjust="spacing" textLength="25" x="589.5" y="288.1328">your</text><text fill="#262626" font-family="sans-serif" font-size="12" lengthAdjust="spacing" textLength="50" x="553.5" y="302.2656">business</text><text fill="#262626" font-family="sans-serif" font-size="12" lengthAdjust="spacing" textLength="4" x="603.5" y="302.2656">&#160;</text><text fill="#262626" font-family="sans-serif" font-size="12" lengthAdjust="spacing" textLength="26" x="607.5" y="302.2656">logic</text><rect fill="url(#gn98nyzc3q1881)" height="54.1328" style="stroke:#C6C6C6;stroke-width:0.5;" width="159" x="514" y="344.7969"/><text fill="#262626" font-family="sans-serif" font-size="12" lengthAdjust="spacing" textLength="29" x="534" y="376.3984">store</text><text fill="#262626" font-family="sans-serif" font-size="12" lengthAdjust="spacing" textLength="4" x="563" y="376.3984">&#160;</text><text fill="#262626" font-family="sans-serif" font-size="12" lengthAdjust="spacing" textLength="31" x="567" y="376.3984">event</text><text fill="#262626" font-family="sans-serif" font-size="12" lengthAdjust="spacing" textLength="4" x="598" y="376.3984">&#160;</text><text fill="#262626" font-family="sans-serif" font-size="12" lengthAdjust="spacing" textLength="51" x="602" y="376.3984">identifier</text><rect fill="#90EE90" height="54.1328" style="stroke:#C6C6C6;stroke-width:0.5;" width="115" x="536" y="418.9297"/><text fill="#262626" font-family="sans-serif" font-size="12" lengthAdjust="spacing" textLength="75" x="556" y="450.5313">acknowledge</text><line style="stroke:#C6C6C6;stroke-width:1.0;" x1="249.5625" x2="249.5625" y1="30" y2="50"/><polygon fill="#C6C6C6" points="245.5625,40,249.5625,50,253.5625,40,249.5625,44" style="stroke:#C6C6C6;stroke-width:1.0;"/><line style="stroke:#C6C6C6;stroke-width:1.0;" x1="593.5" x2="593.5" y1="324.7969" y2="344.7969"/><polygon fill="#C6C6C6" points="589.5,334.7969,593.5,344.7969,597.5,334.7969,593.5,338.7969" style="stroke:#C6C6C6;stroke-width:1.0;"/><line style="stroke:#C6C6C6;stroke-width:1.0;" x1="593.5" x2="593.5" y1="398.9297" y2="418.9297"/><polygon fill="#C6C6C6" points="589.5,408.9297,593.5,418.9297,597.5,408.9297,593.5,412.9297" style="stroke:#C6C6C6;stroke-width:1.0;"/><line style="stroke:#C6C6C6;stroke-width:1.0;" x1="441.75" x2="429" y1="229.4648" y2="229.4648"/><line style="stroke:#C6C6C6;stroke-width:1.0;" x1="429" x2="429" y1="229.4648" y2="256.5313"/><polygon fill="#C6C6C6" points="425,246.5313,429,256.5313,433,246.5313,429,250.5313" style="stroke:#C6C6C6;stroke-width:1.0;"/><line style="stroke:#C6C6C6;stroke-width:1.0;" x1="580.75" x2="593.5" y1="229.4648" y2="229.4648"/><line style="stroke:#C6C6C6;stroke-width:1.0;" x1="593.5" x2="593.5" y1="229.4648" y2="256.5313"/><polygon fill="#C6C6C6" points="589.5,246.5313,593.5,256.5313,597.5,246.5313,593.5,250.5313" style="stroke:#C6C6C6;stroke-width:1.0;"/><line style="stroke:#C6C6C6;stroke-width:1.0;" x1="323.625" x2="280" y1="185.332" y2="185.332"/><line style="stroke:#C6C6C6;stroke-width:1.0;" x1="280" x2="280" y1="185.332" y2="212.3984"/><polygon fill="#C6C6C6" points="276,202.3984,280,212.3984,284,202.3984,280,206.3984" style="stroke:#C6C6C6;stroke-width:1.0;"/><line style="stroke:#C6C6C6;stroke-width:1.0;" x1="467.625" x2="511.25" y1="185.332" y2="185.332"/><line style="stroke:#C6C6C6;stroke-width:1.0;" x1="511.25" x2="511.25" y1="185.332" y2="212.3984"/><polygon fill="#C6C6C6" points="507.25,202.3984,511.25,212.3984,515.25,202.3984,511.25,206.3984" style="stroke:#C6C6C6;stroke-width:1.0;"/><line style="stroke:#C6C6C6;stroke-width:1.0;" x1="164.0625" x2="103.5" y1="141.1992" y2="141.1992"/><line style="stroke:#C6C6C6;stroke-width:1.0;" x1="103.5" x2="103.5" y1="141.1992" y2="168.2656"/><polygon fill="#C6C6C6" points="99.5,158.2656,103.5,168.2656,107.5,158.2656,103.5,162.2656" style="stroke:#C6C6C6;stroke-width:1.0;"/><line style="stroke:#C6C6C6;stroke-width:1.0;" x1="335.0625" x2="395.625" y1="141.1992" y2="141.1992"/><line style="stroke:#C6C6C6;stroke-width:1.0;" x1="395.625" x2="395.625" y1="141.1992" y2="168.2656"/><polygon fill="#C6C6C6" points="391.625,158.2656,395.625,168.2656,399.625,158.2656,395.625,162.2656" style="stroke:#C6C6C6;stroke-width:1.0;"/><line style="stroke:#C6C6C6;stroke-width:1.0;" x1="249.5625" x2="249.5625" y1="104.1328" y2="124.1328"/><polygon fill="#C6C6C6" points="245.5625,114.1328,249.5625,124.1328,253.5625,114.1328,249.5625,118.1328" style="stroke:#C6C6C6;stroke-width:1.0;"/><!--SRC=[ZL7DJiCm3BxdAJnnsIJ40xGFW90uSEAUDLzRQvbJEKbHtvwqfODD0-63PJcVlXzdnzBux42fnnbFdC_UcDsWjZjRoX7lqCIDzIyj1J4nMKscKZJW4OGHacfZkANzCXExqhbbA9qaVCXXvXNQJuW7GwKUNhdhqxC2Kd4dGV58LXpPPiPxk0uBBWMoOs17YgICM2zRXsIRti17q5x2IZchny9bKrRG29trtQQyeHRnDvPJSL-0Gb0DMb_UlgZdSQM_MDuqreGn3qFGT5_WDk6FL2NH5UnEkZjMVh4pLsM7mKyqXQnN-sEEB8YHVEYukMQkOYeNfzk_glyJu6-FuhWrtzFQFm40]--></g></svg>