<?xml version="1.0" encoding="us-ascii" standalone="no"?><svg xmlns="http://www.w3.org/2000/svg" xmlns:xlink="http://www.w3.org/1999/xlink" contentStyleType="text/css" height="142px" preserveAspectRatio="none" style="width:429px;height:142px;background:#FFFFFF;" version="1.1" viewBox="0 0 429 142" width="429px" zoomAndPan="magnify"><defs/><g><text fill="#000000" font-family="sans-serif" font-size="12" lengthAdjust="spacing" textLength="147" x="10" y="32.7344">my webhook subscription</text><line style="stroke:#000000;stroke-width:1.0;" x1="8" x2="195" y1="35.2656" y2="35.2656"/><line style="stroke:#000000;stroke-width:1.0;" x1="8" x2="8" y1="32.2656" y2="34.2656"/><line style="stroke:#000000;stroke-width:1.0;" x1="195" x2="195" y1="32.2656" y2="34.2656"/><path d="M203.75,24.2656 C202.37,24.2656 201.09,24.6656 200,25.3556 L200.53,26.1656 C201.46,25.5756 202.56,25.2556 203.75,25.2556 C204.95,25.2556 206.07,25.5656 207,26.1656 L207.53,25.3556 C206.44,24.6556 205.13,24.2656 203.75,24.2656 M203.75,27.2656 C202.96,27.2656 202.25,27.4956 201.62,27.8956 L202.15,28.7356 C202.62,28.4356 203.15,28.2656 203.74,28.2656 C204.33,28.2656 204.9,28.4356 205.37,28.7356 L205.9,27.8956 C205.28,27.5056 204.53,27.2656 203.74,27.2656 M203.75,30.2656 C203.2,30.2656 202.75,30.7156 202.75,31.2656 C202.75,31.8156 203.2,32.2656 203.75,32.2656 C204.3,32.2656 204.75,31.8156 204.75,31.2656 C204.75,30.7156 204.3,30.2656 203.75,30.2656 " fill="#008000" style="stroke:;stroke-width:0.0;stroke-dasharray:;"/><text fill="#008000" font-family="sans-serif" font-size="12" lengthAdjust="spacing" textLength="47" x="217" y="32.7344">enabled</text><rect fill="#EEEEEE" height="18.1328" rx="5" ry="5" style="stroke:#000000;stroke-width:2.5;" width="60" x="274.5" y="23.6328"/><path d="M293,28.7656 C291.62,28.7656 290.5,29.8856 290.5,31.2656 C290.5,31.5856 290.58,31.8856 290.69,32.1756 L287.78,35.0556 C287.39,35.4456 287.39,36.1056 287.78,36.4956 C287.98,36.6956 288.24,36.7756 288.5,36.7756 C288.76,36.7756 289.02,36.6856 289.22,36.4956 L292.1,33.5856 C292.38,33.6956 292.68,33.7756 293.01,33.7756 C294.39,33.7756 295.51,32.6556 295.51,31.2756 C295.51,31.1156 295.51,30.9556 295.48,30.8056 L294.51,31.7756 L292.51,31.7756 L292.51,29.7756 L293.48,28.8056 C293.33,28.7756 293.17,28.7756 293.01,28.7756 M288.5,35.2656 C288.78,35.2656 289,35.4856 289,35.7656 C289,36.0456 288.78,36.2656 288.5,36.2656 C288.22,36.2656 288,36.0456 288,35.7656 C288,35.4856 288.22,35.2656 288.5,35.2656 " fill="#000000" style="stroke:;stroke-width:0.0;stroke-dasharray:;"/><text fill="#000000" font-family="sans-serif" font-size="12" lengthAdjust="spacing" textLength="22" x="300.5" y="37.2344">Edit</text><rect fill="#EEEEEE" height="18.1328" rx="5" ry="5" style="stroke:#000000;stroke-width:2.5;" width="76" x="341.5" y="23.6328"/><path d="M358,28.7656 C357.45,28.7656 357,29.2156 357,29.7656 L356,29.7656 C355.45,29.7656 355,30.2156 355,30.7656 L362,30.7656 C362,30.2156 361.55,29.7656 361,29.7656 L360,29.7656 C360,29.2156 359.55,28.7656 359,28.7656 L358,28.7656 M356,31.7656 L356,36.5756 C356,36.6856 356.08,36.7656 356.19,36.7656 L360.82,36.7656 C360.93,36.7656 361.01,36.6856 361.01,36.5756 L361.01,31.7656 L360.01,31.7656 L360.01,35.2656 C360.01,35.5456 359.79,35.7656 359.51,35.7656 C359.23,35.7656 359.01,35.5456 359.01,35.2656 L359.01,31.7656 L358.01,31.7656 L358.01,35.2656 C358.01,35.5456 357.79,35.7656 357.51,35.7656 C357.23,35.7656 357.01,35.5456 357.01,35.2656 L357.01,31.7656 L356.01,31.7656 " fill="#FF0000" style="stroke:;stroke-width:0.0;stroke-dasharray:;"/><text fill="#FF0000" font-family="sans-serif" font-size="12" lengthAdjust="spacing" textLength="37" x="368" y="37.2344">Delete</text><text fill="#000000" font-family="sans-serif" font-size="12" lengthAdjust="spacing" textLength="95" x="10" y="59.8672">test subscription</text><line style="stroke:#000000;stroke-width:1.0;" x1="8" x2="195" y1="62.3984" y2="62.3984"/><line style="stroke:#000000;stroke-width:1.0;" x1="8" x2="8" y1="59.3984" y2="61.3984"/><line style="stroke:#000000;stroke-width:1.0;" x1="195" x2="195" y1="59.3984" y2="61.3984"/><path d="M203.75,51.3984 C202.37,51.3984 201.09,51.7984 200,52.4884 L200.53,53.2984 C201.46,52.7084 202.56,52.3884 203.75,52.3884 C204.95,52.3884 206.07,52.6984 207,53.2984 L207.53,52.4884 C206.44,51.7884 205.13,51.3984 203.75,51.3984 M203.75,54.3984 C202.96,54.3984 202.25,54.6284 201.62,55.0284 L202.15,55.8684 C202.62,55.5684 203.15,55.3984 203.74,55.3984 C204.33,55.3984 204.9,55.5684 205.37,55.8684 L205.9,55.0284 C205.28,54.6384 204.53,54.3984 203.74,54.3984 M203.75,57.3984 C203.2,57.3984 202.75,57.8484 202.75,58.3984 C202.75,58.9484 203.2,59.3984 203.75,59.3984 C204.3,59.3984 204.75,58.9484 204.75,58.3984 C204.75,57.8484 204.3,57.3984 203.75,57.3984 " fill="#808080" style="stroke:;stroke-width:0.0;stroke-dasharray:;"/><text fill="#808080" font-family="sans-serif" font-size="12" lengthAdjust="spacing" textLength="50" x="213" y="59.8672">disabled</text><rect fill="#EEEEEE" height="18.1328" rx="5" ry="5" style="stroke:#000000;stroke-width:2.5;" width="60" x="273.5" y="50.7656"/><path d="M292,55.8984 C290.62,55.8984 289.5,57.0184 289.5,58.3984 C289.5,58.7184 289.58,59.0184 289.69,59.3084 L286.78,62.1884 C286.39,62.5784 286.39,63.2384 286.78,63.6284 C286.98,63.8284 287.24,63.9084 287.5,63.9084 C287.76,63.9084 288.02,63.8184 288.22,63.6284 L291.1,60.7184 C291.38,60.8284 291.68,60.9084 292.01,60.9084 C293.39,60.9084 294.51,59.7884 294.51,58.4084 C294.51,58.2484 294.51,58.0884 294.48,57.9384 L293.51,58.9084 L291.51,58.9084 L291.51,56.9084 L292.48,55.9384 C292.33,55.9084 292.17,55.9084 292.01,55.9084 M287.5,62.3984 C287.78,62.3984 288,62.6184 288,62.8984 C288,63.1784 287.78,63.3984 287.5,63.3984 C287.22,63.3984 287,63.1784 287,62.8984 C287,62.6184 287.22,62.3984 287.5,62.3984 " fill="#000000" style="stroke:;stroke-width:0.0;stroke-dasharray:;"/><text fill="#000000" font-family="sans-serif" font-size="12" lengthAdjust="spacing" textLength="22" x="299.5" y="64.3672">Edit</text><rect fill="#EEEEEE" height="18.1328" rx="5" ry="5" style="stroke:#000000;stroke-width:2.5;" width="76" x="340.5" y="50.7656"/><path d="M357,55.8984 C356.45,55.8984 356,56.3484 356,56.8984 L355,56.8984 C354.45,56.8984 354,57.3484 354,57.8984 L361,57.8984 C361,57.3484 360.55,56.8984 360,56.8984 L359,56.8984 C359,56.3484 358.55,55.8984 358,55.8984 L357,55.8984 M355,58.8984 L355,63.7084 C355,63.8184 355.08,63.8984 355.19,63.8984 L359.82,63.8984 C359.93,63.8984 360.01,63.8184 360.01,63.7084 L360.01,58.8984 L359.01,58.8984 L359.01,62.3984 C359.01,62.6784 358.79,62.8984 358.51,62.8984 C358.23,62.8984 358.01,62.6784 358.01,62.3984 L358.01,58.8984 L357.01,58.8984 L357.01,62.3984 C357.01,62.6784 356.79,62.8984 356.51,62.8984 C356.23,62.8984 356.01,62.6784 356.01,62.3984 L356.01,58.8984 L355.01,58.8984 " fill="#FF0000" style="stroke:;stroke-width:0.0;stroke-dasharray:;"/><text fill="#FF0000" font-family="sans-serif" font-size="12" lengthAdjust="spacing" textLength="37" x="367" y="64.3672">Delete</text><text fill="#000000" font-family="sans-serif" font-size="12" lengthAdjust="spacing" textLength="107" x="10" y="87">test subscription 2</text><line style="stroke:#000000;stroke-width:1.0;" x1="8" x2="195" y1="89.5313" y2="89.5313"/><line style="stroke:#000000;stroke-width:1.0;" x1="8" x2="8" y1="86.5313" y2="88.5313"/><line style="stroke:#000000;stroke-width:1.0;" x1="195" x2="195" y1="86.5313" y2="88.5313"/><path d="M203.75,78.5313 C202.37,78.5313 201.09,78.9313 200,79.6213 L200.53,80.4313 C201.46,79.8413 202.56,79.5213 203.75,79.5213 C204.95,79.5213 206.07,79.8313 207,80.4313 L207.53,79.6213 C206.44,78.9213 205.13,78.5313 203.75,78.5313 M203.75,81.5313 C202.96,81.5313 202.25,81.7613 201.62,82.1613 L202.15,83.0013 C202.62,82.7013 203.15,82.5313 203.74,82.5313 C204.33,82.5313 204.9,82.7013 205.37,83.0013 L205.9,82.1613 C205.28,81.7713 204.53,81.5313 203.74,81.5313 M203.75,84.5313 C203.2,84.5313 202.75,84.9813 202.75,85.5313 C202.75,86.0813 203.2,86.5313 203.75,86.5313 C204.3,86.5313 204.75,86.0813 204.75,85.5313 C204.75,84.9813 204.3,84.5313 203.75,84.5313 " fill="#808080" style="stroke:;stroke-width:0.0;stroke-dasharray:;"/><text fill="#808080" font-family="sans-serif" font-size="12" lengthAdjust="spacing" textLength="50" x="213" y="87">disabled</text><rect fill="#EEEEEE" height="18.1328" rx="5" ry="5" style="stroke:#000000;stroke-width:2.5;" width="60" x="273.5" y="77.8984"/><path d="M292,83.0313 C290.62,83.0313 289.5,84.1513 289.5,85.5313 C289.5,85.8513 289.58,86.1513 289.69,86.4413 L286.78,89.3213 C286.39,89.7113 286.39,90.3713 286.78,90.7613 C286.98,90.9613 287.24,91.0413 287.5,91.0413 C287.76,91.0413 288.02,90.9513 288.22,90.7613 L291.1,87.8513 C291.38,87.9613 291.68,88.0413 292.01,88.0413 C293.39,88.0413 294.51,86.9213 294.51,85.5413 C294.51,85.3813 294.51,85.2213 294.48,85.0713 L293.51,86.0413 L291.51,86.0413 L291.51,84.0413 L292.48,83.0713 C292.33,83.0413 292.17,83.0413 292.01,83.0413 M287.5,89.5313 C287.78,89.5313 288,89.7513 288,90.0313 C288,90.3113 287.78,90.5313 287.5,90.5313 C287.22,90.5313 287,90.3113 287,90.0313 C287,89.7513 287.22,89.5313 287.5,89.5313 " fill="#000000" style="stroke:;stroke-width:0.0;stroke-dasharray:;"/><text fill="#000000" font-family="sans-serif" font-size="12" lengthAdjust="spacing" textLength="22" x="299.5" y="91.5">Edit</text><rect fill="#EEEEEE" height="18.1328" rx="5" ry="5" style="stroke:#000000;stroke-width:2.5;" width="76" x="340.5" y="77.8984"/><path d="M357,83.0313 C356.45,83.0313 356,83.4813 356,84.0313 L355,84.0313 C354.45,84.0313 354,84.4813 354,85.0313 L361,85.0313 C361,84.4813 360.55,84.0313 360,84.0313 L359,84.0313 C359,83.4813 358.55,83.0313 358,83.0313 L357,83.0313 M355,86.0313 L355,90.8413 C355,90.9513 355.08,91.0313 355.19,91.0313 L359.82,91.0313 C359.93,91.0313 360.01,90.9513 360.01,90.8413 L360.01,86.0313 L359.01,86.0313 L359.01,89.5313 C359.01,89.8113 358.79,90.0313 358.51,90.0313 C358.23,90.0313 358.01,89.8113 358.01,89.5313 L358.01,86.0313 L357.01,86.0313 L357.01,89.5313 C357.01,89.8113 356.79,90.0313 356.51,90.0313 C356.23,90.0313 356.01,89.8113 356.01,89.5313 L356.01,86.0313 L355.01,86.0313 " fill="#FF0000" style="stroke:;stroke-width:0.0;stroke-dasharray:;"/><text fill="#FF0000" font-family="sans-serif" font-size="12" lengthAdjust="spacing" textLength="37" x="367" y="91.5">Delete</text><line style="stroke:#AAAAAA;stroke-width:1.0;" x1="6" x2="422" y1="105.0313" y2="105.0313"/><rect fill="#EEEEEE" height="18.1328" rx="5" ry="5" style="stroke:#000000;stroke-width:2.5;" width="156" x="9.5" y="113.0313"/><path d="M36,118.1641 L36,121.1641 L33,121.1641 L33,123.1641 L36,123.1641 L36,126.1641 L38,126.1641 L38,123.1641 L41,123.1641 L41,121.1641 L38,121.1641 L38,118.1641 L36,118.1641 " fill="#000000" style="stroke:;stroke-width:0.0;stroke-dasharray:;"/><text fill="#000000" font-family="sans-serif" font-size="12" lengthAdjust="spacing" textLength="97" x="46" y="126.6328">new subscription</text><line style="stroke:#000000;stroke-width:1.0;" x1="5" x2="422" y1="12.0664" y2="12.0664"/><line style="stroke:#000000;stroke-width:1.0;" x1="5" x2="422" y1="135.6641" y2="135.6641"/><line style="stroke:#000000;stroke-width:1.0;" x1="5" x2="5" y1="12.0664" y2="46.2656"/><line style="stroke:#000000;stroke-width:1.0;" x1="422" x2="422" y1="46.2656" y2="73.3984"/><line style="stroke:#000000;stroke-width:1.0;" x1="422" x2="422" y1="12.0664" y2="46.2656"/><line style="stroke:#000000;stroke-width:1.0;" x1="5" x2="5" y1="108.5313" y2="135.6641"/><line style="stroke:#000000;stroke-width:1.0;" x1="5" x2="5" y1="100.5313" y2="108.5313"/><line style="stroke:#000000;stroke-width:1.0;" x1="422" x2="422" y1="108.5313" y2="135.6641"/><line style="stroke:#000000;stroke-width:1.0;" x1="5" x2="5" y1="73.3984" y2="100.5313"/><line style="stroke:#000000;stroke-width:1.0;" x1="422" x2="422" y1="100.5313" y2="108.5313"/><line style="stroke:#000000;stroke-width:1.0;" x1="5" x2="5" y1="46.2656" y2="73.3984"/><line style="stroke:#000000;stroke-width:1.0;" x1="422" x2="422" y1="73.3984" y2="100.5313"/><rect fill="#FFFFFF" height="14.1328" style="stroke:#FFFFFF;stroke-width:1.0;" width="147" x="11" y="5"/><text fill="#000000" font-family="sans-serif" font-size="12" font-weight="bold" lengthAdjust="spacing" textLength="147" x="11" y="16.6016">Webhook subscriptions</text><!--SRC=[xHhxRzD6-6VxhxYLYK6rb3Hz05LLGP_0sjAr1JPDC5tiBybHvvoTpsspqlzzt_bvjizEEaX00aULqllUp_jybsU1f486r9FsJt80Go0E5LsVj_g2Zctx5tBpOM5nSKS0bK0uN94hw0vy_u84OJTm11j9vlF5nGN4L8yBsIBvH1P8pPEYet0P1l7Q9_81EErwu7v8e709N6RGl_vuJtpXWbYAgPPwZ5EF_GlkeylbX699au4Kcuxl-MAZBm3urkPzXmd7WvOp0ETYYyGsRJwASBRU8uVRpDut8rVPUoTRXsCZ_dnClK5ZK_kkqJRA7V3UJ_H1R6Vc0_H0v8N81-yCnWJAUYNnfjvU55gIUSLwR0jjZ4rEfI7UKgJW_Ii1t1biaJsNILrd0IvIIq431Ew21qLL4pqa1BAWGP9Y1Jt6cHek2-QaHcVkQhHQYJR8PkI5mLPKiRfI2XC3_0ou6zMy_IolV_K45uoFgA13qgNEHL_u8NTtb0o2Wdc08CnJ3IiCO1iaFPDZ3qYFUW7OnIT7TQ57Gq_k-rmUK-mpQIjukNr4JZou9cSeu5Tox4i_-VeMX4ivNJ0pESDwI9aiTpISO41T_uhnVh7dnDhbQ95jZYyu21sjhQ6Se6kOmqQKonFgkYdB5Hrdsx_MOUcpKkHJHL1QwpZFXV2lObVhpprdNNrqyoG8yELu1EGc2lVETYbKztghwfC0eqQI019c2l2yGjLPLvy4g5DfW9SLgdtr932TA5_VQw3Pgw4vhj10MtqIeC6cMyr5aabFUSTIUHAXMPKjABNAqfWPi19NMcd6HIWvNgUTCZYDTIsdqvCKVZvWpWM78D2e5N79piAZrznjePWyw6C9AnDhd6kP8fZx8rkwrRa6LspeKHwvha2VUg5ioh9jdIjVLwn8A5ePPOHM5LzH_-VjWxztNX- -FjL8ukxIzJstv0NgI7R9v5ZfQvcO6_B4ggcMN5Kzab64obuyKoqpMLlhg4yhW-rbRCkGNKQ7FdSdYSViIZ5D4KXWna1gdXdbdMkcpj4wP3KtAi52XZDKfYHEzLCbhf2j9GcJt1Z0Fo7knjM2I1bCczPfLUgfargnL-xRAEgwlgolpRxohmrgu9X0nuRrGzQ3GyR1oAe8BBWl0zNiEDO1BewCN2E8GPLiNQloUF45K6HJHp991NTSvqADUIsJNUmh3N3Ld5EKclsr0DQTg04Djfr23zG0M76nlXVaM8aP9eUNSUfCpIKsScdIjJPIPzciCbN3YiRckhtd3bNMQzeqS6Jsm8dUPkRNZHmK8dnlVW8nJMQyCHRbTHMCYZbAf3W1IUC4L9nM9hRyHYdSbrhtBpJ3cX6rTSS9RC8k9baFTywPs-dumv7FOSRZmfrCA2h8EFOIT0MONA7lWpcZE-ppE9fWFZNCqpYMJJzH5_B7XQd7z4cnSsfYv_cXEsiXBfMqImEORNvCmoGpgzadD9XfVxSQjzMSgcaBB06Z4usdnbxpN4h1kg4qCId08XxBvTdRxtu4PxQbtMZdbxSe3C2PJpOMj9v-e17eSChx7ioteHOg_d-gFaAcIJVy1XGlwjR3WGx47HfrGxipEAcffVI4EhRy6fBLBS1NQBpwoseIdhrol3wpZF7rEfojPULzWOeljrNMp58zva73mDRwpC6jcXpEnVp6xX6887vBcwMySg_FBnca2DKTmsQW_jkoxQwF4TrbjAymKQjqu9gLTkhrNP4S68ux8w0w7waU1sJN7jFSTwG4SSrqel-hMWIWt1CVgiNdnKfq-QYXJY5rOnJT1VKfbr9p8AvB6bmaJCkcDbjgvGSvsz51JjcAa4VtJU1cEZS9gDVTIgzKLcphY8e-u-gR7PibsH0y5XzZQmmC1mbfqJTSXMI1Um7U9KZcq3mysedLdq15bV7leJBM03Z2bK5r-Ht0XNdLBPpZ9O1TmsBiWkpqin01ooghRHbYY3b1o11x6BuLyTfQgcMSSgu4DgFKPAPhIcSzdwtwLqLJIArIvY-r9rkUswIfbkSIvXY-LmLHffgqwRcFtQT5rwHhKLbzn2wPLnKXF_hINVfIdi767g7XcxcO9AgrE0DMMkk9b07h3ppyarD8gWQks0YOf1vpqhPg3nbtXtIavq1LAnDFaqN5wJ3BfhivOFBLaocSH_IQ3SFXE-RA0LbkjqqJIcAp-Xc1Rc_Pc_db7Y9ZbyO6hgExlXCEuoCeKooqgq532vZopDWGTwjX3rAzqF5nqnAKSVayoycYUpl5g3rUQyFoIZ6wXJMj3yMEk-e6XbxnBKLNgyY8pZFgrJEMY2negjmVsIZ1TAAclC44vEx0XJ4TUZzwwNVRIpSVfSF-Zv-cVKS_JJlnyCtapT4XkSHNJgNrybAdtLbTMdbmFWZ9FdJ9yXhfj3TMsnljDRApTquK-A7zuE3ayB930ZyK3YXhubC8vF3GVaKlAJaDkNf5s22lHy1VxVwMBf0zVic4pzKUPBzwUvGZhA-sjfaaPo1G5_BsoDwDVuU658wltaCso9lp_TOJ-v3oVaZxo1kulOEvByLuWnmV_WS0]--></g></svg>